<svg xmlns="http://www.w3.org/2000/svg" xmlns:xlink="http://www.w3.org/1999/xlink" preserveAspectRatio="xMidYMid meet" width="32" height="32" viewBox="0 0 32 32" style="width:100%;height:100%"><defs><animateMotion repeatCount="indefinite" dur="1s" begin="0s" xlink:href="#_R_G_L_0_G_L_0_G_L_0_G" fill="freeze" keyTimes="0;0.3333333;0.5333333;0.9666667;1" path="M127 86.3 C127,86.3 127,66.3 127,66.3 C127,66.3 127,82.02 127,82.02 C127,82.02 127,86.3 127,86.3 C127,86.3 127,86.3 127,86.3 " keyPoints="0;0.5;0.89;1;1" keySplines="0.333 0 0.667 1;0.333 0 0.667 0.826;0.241 1 0.667 1;0 0 0 0" calcMode="spline"/><animateTransform repeatCount="indefinite" dur="1s" begin="0s" xlink:href="#_R_G_L_0_G_L_0_G_L_0_G" fill="freeze" attributeName="transform" from="0" to="0" type="rotate" additive="sum" keyTimes="0;0.1333333;0.5333333;0.9666667;1" values="0;14;-5.13;0;0" keySplines="0.333 0 0.667 1;0.333 0 0.667 1;0.333 0 0.667 1;0 0 0 0" calcMode="spline"/><animateTransform repeatCount="indefinite" dur="1s" begin="0s" xlink:href="#_R_G_L_0_G_L_0_G_L_0_G" fill="freeze" attributeName="transform" from="3.0700000000000003 3.0700000000000003" to="3.0700000000000003 3.0700000000000003" type="scale" additive="sum" keyTimes="0;0.3333333;0.9666667;1" values="3.0700000000000003 3.0700000000000003;3.31 3.31;3.0700000000000003 3.0700000000000003;3.0700000000000003 3.0700000000000003" keySplines="0.333 0 0.667 1;0.333 0 0.667 1;0 0 0 0" calcMode="spline"/><animateTransform repeatCount="indefinite" dur="1s" begin="0s" xlink:href="#_R_G_L_0_G_L_0_G_L_0_G" fill="freeze" attributeName="transform" from="-1.916 12.748" to="-1.916 12.748" type="translate" additive="sum" keyTimes="0;1" values="-1.916 12.748;-1.916 12.748" keySplines="0 0 1 1" calcMode="spline"/><animate attributeType="XML" attributeName="opacity" dur="1s" from="0" to="1" xlink:href="#time_group"/></defs><g id="_R_G"><g id="_R_G_L_0_G" transform=" translate(16, 16) scale(0.14, 0.14) translate(-117, -117)"><g id="_R_G_L_0_G_L_0_G"><g id="_R_G_L_0_G_L_0_G_L_0_G"><path id="_R_G_L_0_G_L_0_G_L_0_G_D_0_P_0" fill="#ffffff" fill-opacity="1" fill-rule="nonzero" d=" M7.78 5.24 C4.84,7.21 3.02,5.24 3.02,5.24 C3.02,5.24 3.04,5.22 3.04,5.22 C3.04,5.22 11.23,-1.35 11.23,-1.35 C11.23,-1.35 9.51,1.45 9.51,1.45 C9.51,1.45 9.44,4.43 7.78,5.24z  M-9.74 1.48 C-9.74,1.48 -11.64,-1.33 -11.64,-1.33 C-11.64,-1.33 -11.61,-1.3 -11.61,-1.3 C-11.61,-1.3 -3.25,5.27 -3.25,5.27 C-3.25,5.27 -5.08,7.21 -8.02,5.27 C-9.68,4.45 -9.74,1.48 -9.74,1.48z  M16.54 -10.95 C14.37,-10.53 14.72,-13.76 14.72,-13.76 C14.72,-13.76 14.01,-15.26 15.23,-17.2 C16.57,-19.37 17.33,-21.66 17.38,-24.46 C17.41,-26.21 11.18,-31.5 11.18,-31.5 C11.18,-31.5 13.6,-28.2 13.43,-24.98 C13.1,-20.55 9.96,-17.89 9.96,-17.89 C9.96,-17.89 9.94,-19.05 9.58,-20.08 C8.93,-21.39 8,-23.11 7.85,-23.11 C7.78,-23.11 7.85,-20.45 7.09,-18.9 C6.35,-17.45 5.36,-16.15 4.43,-15.11 C4.07,-16.98 2.97,-19.51 2.97,-19.51 C2.97,-19.51 3.21,-15.92 2.51,-14.08 C2.37,-13.66 2.13,-13.19 1.92,-12.75 C1.87,-12.92 1.63,-13.66 1.56,-16.12 C1.46,-18.83 0.02,-24.29 0.02,-24.29 C0.02,-24.29 0.02,-24.07 0.02,-24.07 C0.02,-24.09 -0.14,-24.29 -0.14,-24.29 C-0.14,-24.29 -1.39,-18.85 -1.48,-16.12 C-1.58,-13.24 -2.03,-12.89 -2.03,-12.89 C-2.03,-12.89 -1.89,-12.75 -1.96,-12.8 C-2.18,-13.21 -2.39,-13.66 -2.54,-14.08 C-3.21,-15.92 -3.16,-19.51 -3.16,-19.51 C-3.16,-19.51 -4.05,-17.05 -4.43,-15.21 C-5.34,-16.24 -6.3,-17.52 -6.99,-18.92 C-7.76,-20.48 -7.69,-23.13 -7.76,-23.13 C-7.9,-23.13 -8.86,-21.41 -9.65,-20.11 C-9.86,-19.07 -9.86,-17.92 -9.86,-17.92 C-9.86,-17.92 -12.45,-20.55 -12.79,-25 C-13,-28.15 -10.61,-31.45 -10.61,-31.45 C-10.61,-31.45 -16.5,-25.99 -16.47,-24.24 C-16.42,-21.43 -16.02,-19.32 -14.65,-17.15 C-13.46,-15.21 -14.65,-13.71 -14.65,-13.71 C-14.65,-13.71 -14.34,-10.48 -16.71,-10.9 C-19.56,-11.47 -25.5,-16.09 -25.5,-16.09 C-25.5,-16.09 -24.37,-12.94 -22.46,-10.29 C-20.66,-7.75 -18.08,-5.86 -18.08,-5.86 C-18.08,-5.86 -20.02,-6.37 -21.88,-6.87 C-23.51,-6.97 -25.28,-7.06 -25.28,-7.06 C-25.28,-7.06 -22.8,-5.49 -20.93,-3.27 C-19.18,-1.18 -17.89,1.55 -17.89,1.55 C-17.89,1.55 -19.06,0.44 -20.54,-0.47 C-21.5,-1.25 -22.84,-1.84 -22.84,-1.84 C-22.84,-1.84 -21.88,-0.84 -20.35,2.54 C-19.25,4.4 -17.62,8.59 -17.14,10.73 C-16.36,14.37 -10.39,18.24 -10.46,18.14 C-10.46,18.14 -11.88,15.7 -12.57,12.75 C-12.83,11.84 -13.12,10.68 -12.98,9.7 C-12.52,11.32 -11.97,12.82 -11.59,13.51 C-10.46,14.67 -9.26,15.6 -8.33,16.22 C-7.42,17.33 -6.49,18.73 -6.08,19.91 C-5.44,22.22 -7.81,24.68 -7.81,24.68 C-7.81,24.68 -4.17,29.09 -4.17,29.09 C-4.17,29.09 -4.38,26.68 -4.38,26.68 C-4.38,26.68 -3.42,27.59 -2.47,29.51 C-1.84,31.08 -0.17,31.5 -0.17,31.5 C-0.17,31.5 0,31.5 0,31.5 C0,31.5 1.82,31.11 2.47,29.51 C3.42,27.56 4.38,26.68 4.38,26.68 C4.38,26.68 4,29.09 4,29.09 C4,29.09 7.81,24.68 7.81,24.68 C7.81,24.68 5.44,22.22 6.08,19.91 C6.54,18.6 7.61,17.08 8.6,15.9 C9.43,15.28 10.42,14.47 11.21,13.49 C11.83,12.7 12.47,10.76 12.98,8.86 C12.98,9.97 12.91,11.47 12.55,12.7 C11.88,15.65 10.27,18.09 10.27,18.09 C10.37,18.19 16.33,14.32 17.12,10.68 C17.58,8.54 19.2,4.38 20.16,2.49 C21.86,-0.89 22.82,-1.9 22.82,-1.9 C22.82,-1.9 21.5,-1.3 20.35,-0.52 C19.04,0.4 17.89,1.5 17.89,1.5 C17.89,1.5 19.18,-1.23 20.93,-3.32 C22.8,-5.53 25.12,-7.11 25.12,-7.11 C25.12,-7.11 23.51,-7.01 21.89,-6.92 C20.02,-6.4 18.08,-5.91 18.08,-5.91 C18.08,-5.91 20.66,-7.8 22.46,-10.33 C24.35,-13.02 25.5,-16.14 25.5,-16.14 C25.5,-16.14 19.56,-11.52 16.54,-10.95z "/></g></g></g></g><g id="time_group"/></svg>